<svg width="79" height="79" viewBox="0 0 79 79" fill="none" xmlns="http://www.w3.org/2000/svg">
<path d="M38.9229 40.9225C44.0315 38.1684 46.8009 38.4252 49.2455 38.6468C50.0224 38.717 50.7575 38.7719 51.5014 38.7675C55.8552 38.6688 59.3817 36.8342 60.9419 35.0589C61.1208 34.8383 61.2074 34.557 61.1835 34.274C61.1597 33.9909 61.0272 33.7281 60.8139 33.5406C60.6005 33.3531 60.3229 33.2554 60.0391 33.268C59.7554 33.2807 59.4875 33.4026 59.2917 33.6084C58.0891 34.9777 55.1244 36.4897 51.4509 36.5731C50.7926 36.5928 50.1321 36.527 49.4474 36.4633C46.8251 36.2198 43.5685 35.9213 37.8805 38.9913C36.4212 39.7791 34.4199 40.071 32.2517 40.2905C27.4305 33.3319 30.3316 27.2708 31.1611 25.8269C31.2423 25.8313 31.3213 25.8576 31.4047 25.8576C32.2825 25.8576 33.1646 25.6425 33.9634 25.1905C34.2067 25.0423 34.3829 24.8053 34.4547 24.5296C34.5264 24.2539 34.4881 23.9611 34.3479 23.7132C34.2077 23.4652 33.9765 23.2815 33.7032 23.2009C33.43 23.1203 33.1361 23.1491 32.8837 23.2813C32.1934 23.6613 31.3851 23.7669 30.6202 23.5769C29.8554 23.387 29.1905 22.9154 28.7582 22.2565C28.595 22.0264 28.3495 21.868 28.0725 21.8142C27.7956 21.7603 27.5086 21.8152 27.2711 21.9674C27.0336 22.1197 26.8639 22.3575 26.7971 22.6316C26.7304 22.9057 26.7717 23.1949 26.9127 23.4393C27.4327 24.2534 28.1657 24.8657 28.993 25.2761C27.8497 27.5978 25.6794 33.7027 29.8093 40.5296C26.9039 40.8149 23.994 41.2253 21.7162 42.6934C20.1158 43.743 18.7194 45.0747 17.595 46.6236C16.2147 46.3866 11.1609 45.1424 10.2788 39.5334C10.8274 39.1076 11.2707 38.5459 11.545 37.8524C11.598 37.7184 11.6241 37.5753 11.6218 37.4312C11.6195 37.2871 11.5889 37.1449 11.5316 37.0126C11.4743 36.8804 11.3916 36.7607 11.2881 36.6604C11.1846 36.5602 11.0623 36.4813 10.9283 36.4282C10.7943 36.3752 10.6512 36.3491 10.5071 36.3514C10.363 36.3537 10.2208 36.3843 10.0885 36.4416C9.95627 36.4988 9.83659 36.5816 9.73632 36.6851C9.63605 36.7886 9.55715 36.9109 9.50413 37.0449C9.42141 37.2757 9.28944 37.4857 9.1174 37.6604C8.94536 37.8351 8.73737 37.9703 8.50785 38.0565C8.27535 38.1333 8.02908 38.1593 7.78566 38.1328C7.54225 38.1063 7.30735 38.0279 7.09682 37.9029C6.97089 37.8329 6.83239 37.7883 6.68925 37.7718C6.5461 37.7553 6.40111 37.7672 6.26254 37.8067C5.9827 37.8865 5.74603 38.0743 5.6046 38.3286C5.46317 38.583 5.42857 38.8831 5.50841 39.1629C5.58825 39.4427 5.77599 39.6794 6.03032 39.8208C6.65354 40.1676 7.32066 40.3431 7.98338 40.3431C8.06457 40.3431 8.14138 40.3058 8.22257 40.3014C9.26713 45.5966 13.4519 47.9227 16.4122 48.6271C16.025 49.4521 15.7795 50.3364 15.6859 51.2429C15.6603 51.5327 15.7509 51.8209 15.9377 52.0439C16.1246 52.267 16.3923 52.4067 16.6822 52.4323L16.7809 52.4367C17.0552 52.4367 17.3195 52.3339 17.5218 52.1487C17.724 51.9635 17.8496 51.7092 17.8737 51.436C18.1107 48.7742 20.6497 45.9938 22.9056 44.5345C25.021 43.1718 28.1174 42.8843 31.115 42.6056C34.0227 42.3401 36.7701 42.0855 38.9229 40.9225ZM67.1566 37.622C67.0169 37.8775 66.9844 38.178 67.0663 38.4575C67.1482 38.7369 67.3378 38.9724 67.5933 39.112C67.8488 39.2517 68.1493 39.2842 68.4287 39.2023C68.7082 39.1204 68.9436 38.9308 69.0833 38.6753C69.125 38.6007 73.1255 31.1067 65.6358 26.0704C65.3943 25.9081 65.0982 25.8483 64.8125 25.9043C64.5269 25.9602 64.2753 26.1274 64.1129 26.3689C63.9505 26.6104 63.8907 26.9066 63.9467 27.1922C64.0027 27.4778 64.1698 27.7295 64.4113 27.8918C70.2134 31.7936 67.2839 37.385 67.1566 37.622ZM21.6723 19.9041C21.8464 19.9041 22.018 19.8627 22.1729 19.7834C22.3278 19.704 22.4616 19.5889 22.5633 19.4476C25.7452 15.0214 30.1517 16.5356 30.3382 16.6058C30.6085 16.695 30.9028 16.6757 31.1591 16.552C31.4154 16.4282 31.6136 16.2098 31.7119 15.9426C31.8101 15.6755 31.8007 15.3807 31.6857 15.1204C31.5706 14.86 31.3589 14.6546 31.0953 14.5474C28.9886 13.7662 24.1235 13.5204 20.7814 18.1683C20.6641 18.3322 20.5942 18.5252 20.5794 18.7263C20.5646 18.9273 20.6054 19.1285 20.6975 19.3079C20.7895 19.4872 20.9292 19.6377 21.1012 19.7429C21.2731 19.8481 21.4707 19.9038 21.6723 19.9041ZM50.3581 15.7609C55.2407 15.3638 57.4615 18.9034 57.5625 19.0702C57.71 19.3213 57.9513 19.5035 58.2332 19.5768C58.3727 19.6131 58.5181 19.6215 58.661 19.6016C58.8038 19.5817 58.9413 19.5338 59.0657 19.4608C59.19 19.3877 59.2988 19.2909 59.3857 19.1758C59.4726 19.0607 59.536 18.9297 59.5723 18.7901C59.6086 18.6505 59.617 18.5051 59.5971 18.3623C59.5772 18.2195 59.5293 18.0819 59.4563 17.9576C59.3378 17.7579 56.5157 13.0903 50.1869 13.5731C50.0433 13.5843 49.9032 13.6238 49.7748 13.6891C49.6464 13.7545 49.5321 13.8445 49.4385 13.954C49.2494 14.1752 49.1559 14.4625 49.1786 14.7526C49.2013 15.0427 49.3383 15.312 49.5595 15.5011C49.7807 15.6902 50.068 15.7836 50.3581 15.7609ZM70.4373 47.824C69.8974 47.7933 69.3027 48.2212 69.2545 48.8268C69.2501 48.8663 68.9012 52.5991 65.0631 53.8609C64.8121 53.9397 64.5979 54.1063 64.4597 54.3301C64.3215 54.5539 64.2684 54.82 64.3102 55.0797C64.352 55.3394 64.4859 55.5753 64.6874 55.7444C64.889 55.9135 65.1446 56.0044 65.4076 56.0005C65.5239 56.0004 65.6395 55.9819 65.7499 55.9456C70.9552 54.2383 71.4248 49.2218 71.4423 49.009C71.4543 48.8651 71.4379 48.7203 71.3938 48.5829C71.3498 48.4454 71.2791 48.318 71.1857 48.2079C71.0923 48.0978 70.9782 48.0073 70.8497 47.9414C70.7213 47.8755 70.5811 47.8356 70.4373 47.824Z" fill="black"/>
<path d="M16.1226 37.1612C16.0795 37.302 16.0651 37.4501 16.0803 37.5965C16.0956 37.743 16.1402 37.8849 16.2114 38.0138C16.2827 38.1426 16.3792 38.2558 16.4951 38.3466C16.611 38.4374 16.744 38.504 16.8862 38.5423C17.0284 38.5806 17.1768 38.5899 17.3227 38.5696C17.4685 38.5493 17.6088 38.4999 17.7352 38.4243C17.8615 38.3487 17.9714 38.2484 18.0581 38.1294C18.1449 38.0104 18.2069 37.8752 18.2403 37.7318C18.4515 36.9715 18.9429 36.3193 19.6154 35.9065C20.288 35.4937 21.0919 35.3508 21.8655 35.5066C22.0065 35.5362 22.152 35.5376 22.2937 35.5109C22.4353 35.4843 22.5703 35.4299 22.6909 35.3511C22.8116 35.2722 22.9155 35.1704 22.9968 35.0513C23.078 34.9323 23.1351 34.7984 23.1646 34.6574C23.1941 34.5163 23.1956 34.3708 23.1689 34.2292C23.1422 34.0876 23.0879 33.9526 23.009 33.8319C22.9302 33.7113 22.8283 33.6074 22.7093 33.5261C22.5903 33.4448 22.4564 33.3878 22.3153 33.3583C21.4022 33.1726 20.4557 33.2378 19.5767 33.547C17.018 29.1713 17.5161 24.857 17.5227 24.8109C17.5613 24.5225 17.4839 24.2306 17.3073 23.9993C17.1308 23.7681 16.8696 23.6164 16.5813 23.5776C16.2938 23.5407 16.0034 23.6182 15.7727 23.7935C15.5419 23.9688 15.3894 24.2279 15.348 24.5147C15.3195 24.7275 14.7335 29.597 17.6807 34.6398C16.9307 35.3138 16.3899 36.1889 16.1226 37.1612ZM40.6543 31.741C41.0926 31.3429 41.6652 31.125 42.2572 31.1311C42.8493 31.1373 43.4172 31.3668 43.8472 31.7739C44.0562 31.9764 44.337 32.0876 44.628 32.0831C44.9189 32.0786 45.1962 31.9587 45.3987 31.7497C45.6015 31.5411 45.7131 31.2604 45.709 30.9695C45.7049 30.6785 45.5854 30.4011 45.3768 30.1983C44.8813 29.7265 44.2824 29.377 43.6278 29.1779C44.2773 26.9483 44.0206 25.9586 43.4171 24.1043C43.2978 23.7415 43.1829 23.3772 43.0726 23.0115L43.0068 22.792C42.208 20.1411 41.6791 18.3922 43.1977 15.9234C43.3502 15.6755 43.3979 15.3771 43.3304 15.094C43.2629 14.8108 43.0857 14.5661 42.8378 14.4136C42.5899 14.2611 42.2915 14.2134 42.0084 14.2809C41.7252 14.3484 41.4805 14.5256 41.328 14.7735C39.2916 18.0827 40.0399 20.5603 40.9067 23.4284L40.9725 23.6479C41.1013 24.0721 41.2205 24.4503 41.3302 24.7824C41.8722 26.4524 42.0368 27.0119 41.3741 29.0308C40.5444 29.179 39.775 29.563 39.1577 30.1368C38.9526 30.3371 38.834 30.6097 38.8273 30.8963C38.8206 31.1829 38.9264 31.4608 39.1219 31.6704C39.3175 31.88 39.5874 32.0048 39.8738 32.018C40.1601 32.0312 40.4403 31.9317 40.6543 31.741ZM54.622 25.1905C55.2736 25.1925 55.9175 25.0493 56.507 24.7714C56.7703 24.6474 56.9737 24.4239 57.0722 24.1501C57.1708 23.8762 57.1565 23.5744 57.0326 23.311C56.9086 23.0477 56.6851 22.8443 56.4112 22.7458C56.1373 22.6472 55.8355 22.6615 55.5721 22.7854C55.0329 23.033 54.4199 23.0671 53.8564 22.8811C53.293 22.695 52.8209 22.3026 52.535 21.7826C52.4698 21.6507 52.3788 21.5334 52.2673 21.4374C52.1558 21.3415 52.0261 21.2689 51.8861 21.2241C51.746 21.1792 51.5983 21.163 51.4518 21.1764C51.3053 21.1897 51.163 21.2324 51.0334 21.3019C50.9037 21.3714 50.7894 21.4662 50.6971 21.5807C50.6048 21.6953 50.5365 21.8272 50.4963 21.9687C50.456 22.1101 50.4446 22.2583 50.4627 22.4042C50.4808 22.5502 50.5281 22.691 50.6017 22.8184C50.9967 23.5557 51.5848 24.1372 52.2695 24.541C51.0911 27.4047 51.7604 30.4462 52.3068 32.0592C52.3486 32.2007 52.4185 32.3324 52.5124 32.4463C52.6062 32.5601 52.7221 32.6539 52.853 32.722C52.984 32.7901 53.1273 32.831 53.2745 32.8424C53.4216 32.8538 53.5695 32.8354 53.7094 32.7883C53.8493 32.7412 53.9782 32.6663 54.0884 32.5682C54.1987 32.4701 54.288 32.3508 54.3511 32.2174C54.4142 32.084 54.4497 31.9392 54.4555 31.7917C54.4613 31.6442 54.4373 31.4971 54.385 31.3591C54.0163 30.2663 53.3009 27.5057 54.3806 25.1576C54.464 25.162 54.5408 25.1905 54.622 25.1905ZM65.1487 45.882C65.1403 45.7379 65.1035 45.5969 65.0402 45.4671C64.9769 45.3374 64.8885 45.2215 64.7802 45.1261C64.6718 45.0308 64.5455 44.958 64.4088 44.9118C64.272 44.8656 64.1274 44.847 63.9835 44.8572C63.4573 44.8935 62.9291 44.8256 62.4293 44.6572C61.9294 44.4889 61.4677 44.2235 61.0707 43.8763C60.6737 43.529 60.3492 43.1068 60.1159 42.6338C59.8825 42.1608 59.7449 41.6464 59.7109 41.12C59.6857 40.8317 59.5498 40.5644 59.3317 40.3741C59.1136 40.1838 58.8303 40.0855 58.5412 40.0996C58.3974 40.1094 58.2569 40.1474 58.1278 40.2114C57.9987 40.2755 57.8834 40.3644 57.7887 40.473C57.6939 40.5816 57.6215 40.7078 57.5755 40.8445C57.5296 40.9811 57.511 41.1254 57.5208 41.2692C57.6108 42.564 58.1045 43.7314 58.855 44.6816C57.0907 46.7575 54.78 47.3479 53.4918 47.4993C52.3529 47.6353 51.3566 47.519 50.2045 47.383C49.149 47.2623 47.9552 47.124 46.4784 47.1679L46.4674 47.1701C46.4235 46.5425 46.2743 45.6274 45.7981 44.8659C45.6344 44.6404 45.3912 44.4855 45.1176 44.4325C44.844 44.3795 44.5605 44.4323 44.3244 44.5803C44.0884 44.7284 43.9173 44.9605 43.8458 45.2298C43.7743 45.4992 43.8078 45.7856 43.9394 46.0312C44.2335 46.503 44.2883 47.2557 44.2883 47.6222C43.1823 48.0194 42.2255 48.6031 41.3609 49.167C39.816 50.1721 38.5981 50.9665 36.7658 50.5539C35.1068 50.1743 33.4456 50.0975 32.0367 50.295C31.8173 49.7442 31.4706 49.0859 30.9351 48.5789C30.7236 48.379 30.4413 48.2713 30.1503 48.2796C29.8593 48.2878 29.5836 48.4113 29.3837 48.6228C29.1837 48.8344 29.076 49.1167 29.0843 49.4076C29.0925 49.6986 29.216 49.9744 29.4275 50.1743C29.6163 50.352 29.7655 50.611 29.8862 50.8699C27.4657 51.8662 26.2522 53.5318 26.1951 53.613C26.0787 53.7768 26.0097 53.9696 25.9955 54.1701C25.9813 54.3706 26.0227 54.5711 26.1149 54.7497C26.2071 54.9283 26.3467 55.078 26.5184 55.1825C26.6901 55.2871 26.8873 55.3423 27.0883 55.3422C27.2618 55.343 27.433 55.3027 27.5878 55.2245C27.7427 55.1463 27.8768 55.0324 27.9792 54.8924C27.9902 54.8748 29.1949 53.2619 31.5715 52.6101C32.8004 52.2722 34.5625 52.3007 36.2808 52.6913C36.7614 52.801 37.2068 52.8384 37.6392 52.8449C37.8432 53.3233 37.9222 53.8917 37.9332 54.1024C37.9489 54.3822 38.0711 54.6454 38.2747 54.838C38.4783 55.0306 38.748 55.138 39.0282 55.1381L39.0875 55.1359C39.377 55.1206 39.6488 54.9913 39.8432 54.7762C40.0377 54.5612 40.1392 54.2779 40.1255 53.9882C40.0893 53.4771 39.9935 52.9718 39.8402 52.4829C40.8518 52.1164 41.7318 51.5436 42.5591 51.006C43.8143 50.1875 45.0015 49.4128 46.553 49.3624C47.8521 49.3163 48.923 49.4413 49.9566 49.562C50.9967 49.6827 52.0193 49.7617 53.1473 49.6959C53.347 50.2511 53.3316 50.9928 53.3009 51.2408C53.2823 51.3953 53.2966 51.552 53.3429 51.7006C53.3892 51.8492 53.4663 51.9863 53.5693 52.103C53.6723 52.2196 53.7988 52.3132 53.9405 52.3775C54.0822 52.4419 54.2359 52.4755 54.3915 52.4763C54.6575 52.4759 54.9144 52.3788 55.1142 52.2032C55.314 52.0276 55.4432 51.7854 55.4778 51.5217C55.5574 50.802 55.5136 50.0739 55.3483 49.3689C57.3505 48.8377 59.1446 47.7123 60.4943 46.1409C61.5818 46.8138 62.8522 47.1306 64.1283 47.0472C64.4179 47.0275 64.688 46.8938 64.8792 46.6754C65.0705 46.457 65.1674 46.1717 65.1487 45.882Z" fill="black"/>
<path d="M28.856 10.6309C34.3114 8.99361 39.0223 8.9046 42.3647 9.22266C44.0358 9.38169 45.3647 9.64242 46.272 9.8623C46.7256 9.97224 47.0743 10.0721 47.3071 10.1436C47.4234 10.1793 47.5114 10.2082 47.5688 10.2275C47.5973 10.2371 47.6189 10.2443 47.6323 10.249C47.6386 10.2512 47.6431 10.2529 47.646 10.2539C47.6471 10.2543 47.6484 10.2547 47.6489 10.2549L47.7378 10.2881L47.8325 10.2861C47.8332 10.2861 47.8341 10.2852 47.8354 10.2852H47.9185C47.9788 10.2852 48.0699 10.2861 48.188 10.2891C48.4241 10.2949 48.7694 10.3088 49.1997 10.3438C50.0615 10.4136 51.2611 10.5655 52.6079 10.8896C55.3101 11.5401 58.5555 12.8746 60.8823 15.5967L60.98 15.7109L61.1235 15.752L61.1245 15.7529C61.1263 15.7535 61.1297 15.7545 61.1343 15.7559C61.1438 15.7587 61.1596 15.7629 61.1802 15.7695C61.2213 15.7827 61.2838 15.804 61.3657 15.833C61.5299 15.8911 61.7714 15.982 62.0708 16.1123C62.67 16.373 63.5005 16.7892 64.4165 17.4062C66.2487 18.6405 68.4133 20.6733 69.7612 23.877L69.8198 24.0156L69.9438 24.0986C69.9448 24.0993 69.9463 24.1008 69.9487 24.1025C69.9545 24.1066 69.9647 24.1134 69.978 24.123C70.0048 24.1423 70.0461 24.1728 70.1001 24.2148C70.2084 24.2992 70.368 24.4302 70.562 24.6094C70.9502 24.9678 71.478 25.519 72.021 26.2812C73.1053 27.8035 74.2565 30.1734 74.479 33.5449L74.4888 33.6934L74.5767 33.8105V33.8115C74.5769 33.8118 74.5779 33.8125 74.5786 33.8135C74.5801 33.8156 74.5829 33.8194 74.5864 33.8242C74.5937 33.8342 74.6048 33.85 74.6196 33.8711C74.6497 33.9138 74.695 33.9785 74.7515 34.0645C74.8647 34.2368 75.0243 34.4936 75.2065 34.8223C75.5714 35.4804 76.0231 36.4249 76.3677 37.5664C77.0564 39.8482 77.3132 42.8918 75.6343 46.0322L75.563 46.165L75.5767 46.3154C75.5768 46.3168 75.5773 46.3197 75.5776 46.3232C75.5782 46.3305 75.5795 46.3425 75.5806 46.3584C75.5828 46.3909 75.5857 46.4414 75.5884 46.5078C75.5937 46.641 75.5978 46.84 75.5923 47.0938C75.5813 47.6019 75.5312 48.3297 75.3765 49.1973C75.0666 50.9338 74.3372 53.2202 72.6597 55.4277C71.2346 57.3019 69.3677 58.4815 67.8423 59.1934C67.0815 59.5484 66.4111 59.7848 65.9331 59.9316C65.6946 60.0049 65.5045 60.0556 65.3755 60.0879C65.3234 60.1009 65.2807 60.11 65.2495 60.1172C61.6621 59.8409 58.1123 59.0333 55.1196 58.2852C53.6215 57.9106 52.2479 57.5471 51.1001 57.2803C49.9614 57.0156 48.983 56.8311 48.2778 56.8311C47.5489 56.8311 46.7272 57.0499 45.7866 57.3721C44.8463 57.6942 43.7064 58.1488 42.3657 58.6445C39.6637 59.6437 35.9909 60.8682 30.8179 61.7754L30.7935 61.7803L30.769 61.7871C26.6979 62.9311 23.5633 61.9617 21.2837 60.3076C18.9836 58.6386 17.5393 56.2584 16.9272 54.5967L16.8345 54.3438L16.5718 54.2832L15.5122 54.0303C12.977 53.4085 10.0415 52.5199 7.52393 50.6221C4.67375 48.4735 2.3157 44.9954 1.77979 39V38.999C1.68935 37.9937 1.88948 34.158 3.86865 29.5C5.84141 24.8573 9.57606 19.4111 16.5376 15.1494C20.9454 12.4514 26.9624 11.1992 28.856 10.6309Z" stroke="black"/>
<path d="M52.6787 55.4561C55.9621 55.4561 59.303 55.8039 61.8047 56.6816C64.3138 57.562 65.7811 58.8925 65.8008 60.7617C65.7991 60.7709 65.7975 60.7821 65.7949 60.7949C65.7848 60.8452 65.7669 60.9227 65.7393 61.0234C65.7001 61.1658 65.6395 61.3534 65.5508 61.5742C61.6623 61.5277 58.5937 61.0577 56.1816 60.6211C54.9495 60.398 53.8605 60.1785 52.9404 60.0352C52.1358 59.9098 51.4143 59.835 50.7842 59.8691L50.5195 59.8906C47.9207 60.1767 45.8921 61.2205 44.3115 62.2314C43.5331 62.7293 42.8308 63.2416 42.2656 63.624C41.7457 63.9758 41.345 64.2145 41.0234 64.3301L40.8906 64.3721C39.0174 64.8724 37.5821 64.5985 36.623 64.2139C36.1406 64.0204 35.7745 63.7969 35.5322 63.625C35.4112 63.5391 35.3212 63.4663 35.2637 63.417C35.235 63.3924 35.2146 63.3729 35.2021 63.3613C35.1961 63.3557 35.1915 63.3516 35.1895 63.3496L35.1719 63.332L35.1533 63.3164L34.9854 63.1729C34.1716 62.442 33.7032 61.5251 33.7031 60.5479C33.7031 58.3902 36.0186 56.4396 39.1562 56.4395C40.1167 56.4395 42.6477 56.189 45.3281 55.9453C48.0391 55.6989 50.9298 55.4561 52.6787 55.4561Z" fill="white" stroke="black"/>
<path d="M51.6621 54.5361C54.9853 54.5361 58.4026 54.5485 60.9941 55.1006C62.2891 55.3765 63.3235 55.7769 64.0283 56.3359C64.6682 56.8436 65.0474 57.4879 65.0996 58.3486L65.1055 58.5244C65.1113 59.0773 64.9653 59.837 64.7998 60.501V60.502C63.685 65.0044 58.7056 70.0935 51.6943 69.6309C48.4577 69.4178 45.5512 68.5355 43.4697 67.1904C41.388 65.845 40.1846 64.0787 40.1846 62.083C40.1846 60.0787 41.3942 58.2045 43.4717 56.8086C45.5462 55.4148 48.4408 54.5361 51.6621 54.5361Z" fill="white" stroke="black"/>
</svg>
