<svg width="76" height="62" viewBox="0 0 76 62" fill="none" xmlns="http://www.w3.org/2000/svg">
<path d="M27.0002 3.35288C30.557 2.22284 34.2682 1.6538 38.0002 1.66621C53.3342 1.66621 63.7695 10.8329 69.9918 18.9142C73.1085 22.9696 74.6668 24.9899 74.6668 30.9995C74.6668 37.0129 73.1085 39.0332 69.9918 43.0849C63.7695 51.1662 53.3342 60.3329 38.0002 60.3329C22.6662 60.3329 12.2308 51.1662 6.0085 43.0849C2.89183 39.0369 1.3335 37.0092 1.3335 30.9995C1.3335 24.9862 2.89183 22.9659 6.0085 18.9142C7.90967 16.4312 10.0262 14.1208 12.3335 12.0099" stroke="black" stroke-width="1.5" stroke-linecap="round"/>
<path d="M49 31C49 33.9174 47.8411 36.7153 45.7782 38.7782C43.7153 40.8411 40.9174 42 38 42C35.0826 42 32.2847 40.8411 30.2218 38.7782C28.1589 36.7153 27 33.9174 27 31C27 28.0826 28.1589 25.2847 30.2218 23.2218C32.2847 21.1589 35.0826 20 38 20C40.9174 20 43.7153 21.1589 45.7782 23.2218C47.8411 25.2847 49 28.0826 49 31Z" stroke="black" stroke-width="1.5"/>
</svg>
