<svg width="118" height="312" viewBox="0 0 118 312" fill="none" xmlns="http://www.w3.org/2000/svg">
<mask id="path-1-inside-1_183_263" fill="white">
<path d="M60.4957 178.374C60.0831 183.788 63.3808 212.442 65.0826 223.677C65.8928 229 68.1143 237.672 67.315 242.277C66.1737 248.695 65.8439 256.999 66.4722 261.835C66.8685 264.772 68.1157 278.316 66.3311 283.27C65.3974 285.868 63.6862 299.181 63.6862 299.181C59.2282 311.723 61.7442 311.106 61.7442 311.106C63.1243 312.993 65.4883 311.254 65.4883 311.254C67.2892 312.534 68.5363 310.951 68.5363 310.951C70.0821 312.377 71.8842 310.775 71.8842 310.775C73.8262 311.899 75.6271 309.827 75.6271 309.827C76.7426 310.453 77.0154 309.662 77.0154 309.662C80.3619 309.423 75.148 297.489 75.148 297.489C73.8995 286.771 76.387 280.805 76.387 280.805C84.5349 253.881 84.9488 246.736 81.6918 236.59C80.7745 233.661 80.5424 232.501 80.9644 231.229C81.9402 228.294 81.2291 216.488 82.4192 211.801C84.7154 202.759 86.9804 179.83 88.161 169.132C89.7474 154.721 82.5414 135.398 82.5414 135.398C80.9631 127.535 83.2769 99.5189 83.2769 99.5189C86.5081 105.122 86.3846 115.011 86.3846 115.011C85.8716 125.383 93.9042 141.235 93.9042 141.235C97.7637 147.786 99.2253 154.001 99.2253 154.462C99.2253 156.349 98.8548 160.918 98.8548 160.918L99.0027 164.896C99.0692 165.909 99.5808 169.398 99.498 171.084C98.8955 181.46 100.375 179.508 100.375 179.508C101.623 179.508 102.995 171.158 102.995 171.158C102.995 173.311 102.523 179.758 103.565 182.189C104.812 185.09 105.73 181.692 105.746 181.01C106.076 167.798 106.788 171.259 106.788 171.259C107.482 181.978 108.334 184.399 109.862 183.561C111.02 182.945 109.961 170.698 109.961 170.698C111.944 177.973 113.447 179.132 113.447 179.132C116.719 181.692 114.696 174.621 114.241 173.221C111.82 165.781 111.746 163.202 111.746 163.202C114.771 169.888 117.05 169.64 117.05 169.64C120.001 168.59 114.472 159.124 111.233 154.589C109.58 152.279 107.448 149.185 106.829 147.347C105.821 144.235 105.059 134.231 105.059 134.231C104.754 122.425 102.135 117.298 102.135 117.298C97.6565 109.31 96.8137 94.4108 96.8137 94.4108L96.6156 69.2559C95.0455 52.0973 83.699 51.9733 83.699 51.9733C72.2303 50.071 70.6344 45.9428 70.6344 45.9428C68.2052 42.0474 69.5935 34.5803 69.5935 34.5803C71.6088 32.7536 72.3864 27.9041 72.3864 27.9041C75.7329 25.0446 75.5687 20.8604 74.023 20.9058C72.7826 20.942 73.0636 19.7973 73.0636 19.7973C75.1562 0.96174 60.1496 0 60.1496 0H57.8589C57.8589 0 42.8456 0.96174 44.9354 19.7928C44.9354 19.7928 45.2164 20.939 43.9651 20.9012C42.4235 20.8558 42.2797 25.04 45.614 27.8995C45.614 27.8995 46.3902 32.7476 48.4068 34.5758C48.4068 34.5758 49.7951 42.0429 47.366 45.9382C47.366 45.9382 45.7755 50.0664 34.3014 51.9688C34.3014 51.9688 22.9359 52.0928 21.3902 69.2513L21.1758 94.4063C21.1758 94.4063 20.3493 109.306 15.8533 117.293C15.8533 117.293 13.2464 122.422 12.9451 134.226C12.9451 134.226 12.1811 144.231 11.1768 147.343C10.5648 149.171 8.43419 152.265 6.7677 154.585C3.49986 159.111 -1.99223 168.557 0.94584 169.635C0.94584 169.635 3.23794 169.883 6.25065 163.198C6.25065 163.198 6.18822 165.758 3.77127 173.216C3.2963 174.598 1.27561 181.669 4.54888 179.127C4.54888 179.127 6.06473 177.967 8.03521 170.694C8.03521 170.694 6.97804 182.941 8.15463 183.556C9.69219 184.396 10.5309 181.973 11.2243 171.255C11.2243 171.255 11.9354 167.793 12.2652 181.005C12.2815 181.687 13.1785 185.085 14.4311 182.185C15.4883 179.753 15.0133 173.317 15.0133 171.153C15.0133 171.153 16.369 179.504 17.6365 179.504C17.6365 179.504 19.1279 181.456 18.5159 171.079C18.4168 169.384 18.9502 165.905 19.0167 164.892L19.1605 160.913C19.1605 160.913 18.7887 156.355 18.7887 154.458C18.7887 153.987 20.2516 147.781 24.1098 141.231C24.1098 141.231 32.1342 125.371 31.6171 115.007C31.6171 115.007 31.5058 105.117 34.737 99.5144C34.737 99.5144 37.0305 127.529 35.4766 135.394C35.4766 135.394 28.2583 154.716 29.8502 169.127C31.0227 179.854 33.2836 202.753 35.5852 211.796C36.7876 216.475 36.0765 228.277 37.04 231.224C37.4742 232.505 37.2463 233.685 36.3126 236.585C33.0732 246.732 33.4858 253.878 41.6337 280.801C41.6337 280.801 44.1416 286.766 42.874 297.485C42.874 297.485 37.6683 309.419 41.0026 309.658C41.0026 309.658 41.2632 310.449 42.3909 309.822C42.3909 309.822 44.1918 311.894 46.1378 310.771C46.1378 310.771 47.94 312.374 49.4803 310.946C49.4803 310.946 50.7152 312.529 52.5161 311.25C52.5161 311.25 54.8801 313.027 56.2847 311.102C56.2847 311.102 58.7803 311.719 54.3373 299.177C54.3373 299.177 52.6355 285.88 51.6977 283.266C49.9091 278.313 51.1726 264.74 51.5539 261.831C52.1687 256.968 51.8389 248.682 50.7152 242.272C49.8928 237.678 52.1198 229.005 52.9422 223.673C54.6317 212.448 57.943 183.792 57.5291 178.37L58.897 178.905C59.8768 178.908 60.4957 178.374 60.4957 178.374Z"/>
</mask>
<path d="M60.4957 178.374C60.0831 183.788 63.3808 212.442 65.0826 223.677C65.8928 229 68.1143 237.672 67.315 242.277C66.1737 248.695 65.8439 256.999 66.4722 261.835C66.8685 264.772 68.1157 278.316 66.3311 283.27C65.3974 285.868 63.6862 299.181 63.6862 299.181C59.2282 311.723 61.7442 311.106 61.7442 311.106C63.1243 312.993 65.4883 311.254 65.4883 311.254C67.2892 312.534 68.5363 310.951 68.5363 310.951C70.0821 312.377 71.8842 310.775 71.8842 310.775C73.8262 311.899 75.6271 309.827 75.6271 309.827C76.7426 310.453 77.0154 309.662 77.0154 309.662C80.3619 309.423 75.148 297.489 75.148 297.489C73.8995 286.771 76.387 280.805 76.387 280.805C84.5349 253.881 84.9488 246.736 81.6918 236.59C80.7745 233.661 80.5424 232.501 80.9644 231.229C81.9402 228.294 81.2291 216.488 82.4192 211.801C84.7154 202.759 86.9804 179.83 88.161 169.132C89.7474 154.721 82.5414 135.398 82.5414 135.398C80.9631 127.535 83.2769 99.5189 83.2769 99.5189C86.5081 105.122 86.3846 115.011 86.3846 115.011C85.8716 125.383 93.9042 141.235 93.9042 141.235C97.7637 147.786 99.2253 154.001 99.2253 154.462C99.2253 156.349 98.8548 160.918 98.8548 160.918L99.0027 164.896C99.0692 165.909 99.5808 169.398 99.498 171.084C98.8955 181.46 100.375 179.508 100.375 179.508C101.623 179.508 102.995 171.158 102.995 171.158C102.995 173.311 102.523 179.758 103.565 182.189C104.812 185.09 105.73 181.692 105.746 181.01C106.076 167.798 106.788 171.259 106.788 171.259C107.482 181.978 108.334 184.399 109.862 183.561C111.02 182.945 109.961 170.698 109.961 170.698C111.944 177.973 113.447 179.132 113.447 179.132C116.719 181.692 114.696 174.621 114.241 173.221C111.82 165.781 111.746 163.202 111.746 163.202C114.771 169.888 117.05 169.64 117.05 169.64C120.001 168.59 114.472 159.124 111.233 154.589C109.58 152.279 107.448 149.185 106.829 147.347C105.821 144.235 105.059 134.231 105.059 134.231C104.754 122.425 102.135 117.298 102.135 117.298C97.6565 109.31 96.8137 94.4108 96.8137 94.4108L96.6156 69.2559C95.0455 52.0973 83.699 51.9733 83.699 51.9733C72.2303 50.071 70.6344 45.9428 70.6344 45.9428C68.2052 42.0474 69.5935 34.5803 69.5935 34.5803C71.6088 32.7536 72.3864 27.9041 72.3864 27.9041C75.7329 25.0446 75.5687 20.8604 74.023 20.9058C72.7826 20.942 73.0636 19.7973 73.0636 19.7973C75.1562 0.96174 60.1496 0 60.1496 0H57.8589C57.8589 0 42.8456 0.96174 44.9354 19.7928C44.9354 19.7928 45.2164 20.939 43.9651 20.9012C42.4235 20.8558 42.2797 25.04 45.614 27.8995C45.614 27.8995 46.3902 32.7476 48.4068 34.5758C48.4068 34.5758 49.7951 42.0429 47.366 45.9382C47.366 45.9382 45.7755 50.0664 34.3014 51.9688C34.3014 51.9688 22.9359 52.0928 21.3902 69.2513L21.1758 94.4063C21.1758 94.4063 20.3493 109.306 15.8533 117.293C15.8533 117.293 13.2464 122.422 12.9451 134.226C12.9451 134.226 12.1811 144.231 11.1768 147.343C10.5648 149.171 8.43419 152.265 6.7677 154.585C3.49986 159.111 -1.99223 168.557 0.94584 169.635C0.94584 169.635 3.23794 169.883 6.25065 163.198C6.25065 163.198 6.18822 165.758 3.77127 173.216C3.2963 174.598 1.27561 181.669 4.54888 179.127C4.54888 179.127 6.06473 177.967 8.03521 170.694C8.03521 170.694 6.97804 182.941 8.15463 183.556C9.69219 184.396 10.5309 181.973 11.2243 171.255C11.2243 171.255 11.9354 167.793 12.2652 181.005C12.2815 181.687 13.1785 185.085 14.4311 182.185C15.4883 179.753 15.0133 173.317 15.0133 171.153C15.0133 171.153 16.369 179.504 17.6365 179.504C17.6365 179.504 19.1279 181.456 18.5159 171.079C18.4168 169.384 18.9502 165.905 19.0167 164.892L19.1605 160.913C19.1605 160.913 18.7887 156.355 18.7887 154.458C18.7887 153.987 20.2516 147.781 24.1098 141.231C24.1098 141.231 32.1342 125.371 31.6171 115.007C31.6171 115.007 31.5058 105.117 34.737 99.5144C34.737 99.5144 37.0305 127.529 35.4766 135.394C35.4766 135.394 28.2583 154.716 29.8502 169.127C31.0227 179.854 33.2836 202.753 35.5852 211.796C36.7876 216.475 36.0765 228.277 37.04 231.224C37.4742 232.505 37.2463 233.685 36.3126 236.585C33.0732 246.732 33.4858 253.878 41.6337 280.801C41.6337 280.801 44.1416 286.766 42.874 297.485C42.874 297.485 37.6683 309.419 41.0026 309.658C41.0026 309.658 41.2632 310.449 42.3909 309.822C42.3909 309.822 44.1918 311.894 46.1378 310.771C46.1378 310.771 47.94 312.374 49.4803 310.946C49.4803 310.946 50.7152 312.529 52.5161 311.25C52.5161 311.25 54.8801 313.027 56.2847 311.102C56.2847 311.102 58.7803 311.719 54.3373 299.177C54.3373 299.177 52.6355 285.88 51.6977 283.266C49.9091 278.313 51.1726 264.74 51.5539 261.831C52.1687 256.968 51.8389 248.682 50.7152 242.272C49.8928 237.678 52.1198 229.005 52.9422 223.673C54.6317 212.448 57.943 183.792 57.5291 178.37L58.897 178.905C59.8768 178.908 60.4957 178.374 60.4957 178.374Z" fill="white" stroke="black" stroke-width="4" mask="url(#path-1-inside-1_183_263)"/>
</svg>
