<svg width="71" height="76" viewBox="0 0 71 76" fill="none" xmlns="http://www.w3.org/2000/svg">
<path d="M48.3799 10.7217C53.6227 8.35752 59.8918 7.65379 67.4404 7.83691L67.1328 15.9092C60.3254 15.7107 56.0798 15.9398 52.6367 17.4912H52.6357C49.439 18.9324 46.677 21.246 44.2197 25.4365C44.1843 25.4214 44.1477 25.4056 44.1104 25.3896C43.5198 25.1383 42.6861 24.7905 41.7119 24.4023C40.0983 23.7594 38.0821 23.0005 36.1396 22.3896C39.3407 16.4914 43.0453 13.1257 48.3799 10.7217ZM37.332 1V6.66016L38.3916 6.59668C39.8696 6.50863 41.3166 6.51548 42.7031 6.61719C35.0057 10.8782 31.0291 18.3023 29.8506 20.7266C27.5338 20.403 25.0416 20.1443 22.6543 20.166H22.6172L22.5801 20.1689C19.832 20.3979 17.1261 20.806 12.7539 23.2002L12.709 23.2246L12.667 23.2539C12.1261 23.6263 11.4616 24.173 10.6299 24.9297C9.78811 24.4016 8.91692 23.9186 8.02051 23.4844L8.01953 23.4834L7.58496 23.2793C5.65246 22.391 3.34919 21.6249 1 21.4482V15.2207C4.98953 15.4175 8.57821 16.7493 11.1182 17.9756C12.0684 18.4345 12.9025 18.8909 13.5938 19.2979L14.5254 19.8467L15 18.875C15.6005 17.6436 16.3722 16.4972 17.2949 15.4688L17.8086 14.8955L17.3867 14.2529L13.1572 7.80371L19.1338 4.0293L23.0098 9.94141L23.4961 10.6836L24.291 10.2881C26.0896 9.39448 27.9674 8.65922 29.9014 8.09082L30.6191 7.87988V7.13184L30.6211 1H37.332Z" stroke="black" stroke-width="2"/>
<mask id="path-2-inside-1_185_501" fill="white">
<path d="M14.9898 27.9913C-0.827041 41.708 21.7668 75.9999 39.8441 75.9999C57.9214 75.9999 82.8106 41.7377 64.6985 26.0305C64.3214 25.7029 63.9468 25.3726 63.5747 25.0396C62.0765 23.7056 61.0813 22.8163 58.3177 21.2197C52.7602 21.2197 49.4108 26.6255 47.8864 29.9203C47.8094 30.0849 47.7145 30.2411 47.6033 30.3861L44.0863 39.8934L42.8211 44.3167C42.6872 44.7832 42.7217 45.2802 42.9191 45.7248L44.3999 49.0492L52.059 48.1853L52.562 52.3905L45.3559 53.2057L45.8241 59.8778L41.4796 60.1658L40.8959 51.8421L38.9229 47.4061C38.329 46.072 38.2237 44.5802 38.6246 43.1797L38.6616 43.0484L34.2321 44.9964L31.3357 52.1131L27.2852 50.5547L29.5805 44.9181L22.59 43.3173L23.5874 39.1947L32.3114 41.1935L40.2709 37.6892L42.9495 30.4475C36.0505 27.2947 21.8822 22.0095 14.9876 27.9871"/>
</mask>
<path d="M64.6985 26.0305L63.3867 27.5403L63.3881 27.5415L64.6985 26.0305ZM63.5747 25.0396L64.9086 23.5494L64.9047 23.5458L63.5747 25.0396ZM58.3177 21.2197L59.3182 19.488L58.8539 19.2197H58.3177V21.2197ZM47.8864 29.9203L49.6979 30.768L49.7016 30.7601L47.8864 29.9203ZM47.6033 30.3861L46.0159 29.1696L45.8323 29.4091L45.7276 29.6922L47.6033 30.3861ZM44.0863 39.8934L42.2105 39.1995L42.1843 39.2705L42.1634 39.3434L44.0863 39.8934ZM42.8211 44.3167L44.7434 44.8686L44.7439 44.8668L42.8211 44.3167ZM42.9191 45.7248L41.091 46.536L41.0921 46.5386L42.9191 45.7248ZM44.3999 49.0492L42.573 49.863L43.1689 51.2007L44.6241 51.0366L44.3999 49.0492ZM52.059 48.1853L54.0448 47.9477L53.8088 45.9752L51.8348 46.1979L52.059 48.1853ZM52.562 52.3905L52.7868 54.3778L54.7869 54.1516L54.5479 52.153L52.562 52.3905ZM45.3559 53.2057L45.1311 51.2184L43.2267 51.4339L43.3608 53.3457L45.3559 53.2057ZM45.8241 59.8778L45.9564 61.8734L47.9598 61.7406L47.8192 59.7378L45.8241 59.8778ZM41.4796 60.1658L39.4845 60.3056L39.6238 62.2931L41.6119 62.1614L41.4796 60.1658ZM40.8959 51.8421L42.891 51.7022L42.8664 51.351L42.7234 51.0293L40.8959 51.8421ZM38.9229 47.4061L40.7503 46.5933L40.7501 46.5927L38.9229 47.4061ZM38.6246 43.1797L40.5474 43.73L40.5495 43.7224L38.6246 43.1797ZM38.6616 43.0484L40.5865 43.5912L41.737 39.511L37.8564 41.2176L38.6616 43.0484ZM34.2321 44.9964L33.427 43.1657L32.6851 43.4919L32.3797 44.2425L34.2321 44.9964ZM31.3357 52.1131L30.6176 53.9797L32.4486 54.6842L33.1882 52.8671L31.3357 52.1131ZM27.2852 50.5547L25.4329 49.8004L24.6638 51.6891L26.567 52.4213L27.2852 50.5547ZM29.5805 44.9181L31.4328 45.6724L32.32 43.4937L30.0269 42.9685L29.5805 44.9181ZM22.59 43.3173L20.6461 42.847L20.17 44.8149L22.1436 45.2668L22.59 43.3173ZM23.5874 39.1947L24.0341 37.2452L22.1081 36.8039L21.6435 38.7244L23.5874 39.1947ZM32.3114 41.1935L31.8647 43.143L32.5107 43.291L33.1173 43.024L32.3114 41.1935ZM40.2709 37.6892L41.0768 39.5196L41.8527 39.178L42.1467 38.383L40.2709 37.6892ZM42.9495 30.4475L44.8253 31.1414L45.4694 29.4001L43.7808 28.6285L42.9495 30.4475ZM14.9898 27.9913L13.6794 26.4803C9.17178 30.3895 7.46737 35.7424 7.6596 41.3479C7.85029 46.9087 9.89655 52.8004 12.974 58.1383C16.0577 63.4871 20.2483 68.4055 24.8829 72.0068C29.4909 75.5874 34.7165 77.9999 39.8441 77.9999V75.9999V73.9999C35.933 73.9999 31.5555 72.126 27.3372 68.8482C23.1455 65.5911 19.2867 61.0793 16.4393 56.1405C13.5857 51.1908 11.8193 45.9377 11.6572 41.2109C11.4967 36.5288 12.8993 32.4515 16.3001 29.5022L14.9898 27.9913ZM39.8441 75.9999V77.9999C44.9604 77.9999 50.3225 75.5986 55.1039 71.9988C59.9157 68.3762 64.3286 63.4018 67.5644 57.9224C70.794 52.4538 72.9235 46.3573 72.998 40.4901C73.0732 34.5615 71.0393 28.8821 66.0088 24.5196L64.6985 26.0305L63.3881 27.5415C67.4137 31.0325 69.0606 35.5261 68.9983 40.4393C68.9352 45.414 67.1086 50.8281 64.1202 55.8884C61.1381 60.938 57.0712 65.5109 52.698 68.8032C48.2944 72.1186 43.7665 73.9999 39.8441 73.9999V75.9999ZM64.6985 26.0305L66.0102 24.5208C65.6405 24.1996 65.2733 23.8758 64.9086 23.5494L63.5747 25.0396L62.2409 26.5298C62.6203 26.8694 63.0022 27.2062 63.3867 27.5403L64.6985 26.0305ZM63.5747 25.0396L64.9047 23.5458C63.3486 22.1604 62.241 21.1765 59.3182 19.488L58.3177 21.2197L57.3172 22.9515C59.9215 24.456 60.8043 25.2508 62.2448 26.5333L63.5747 25.0396ZM58.3177 21.2197V19.2197C54.8292 19.2197 52.1185 20.9311 50.159 22.9369C48.213 24.9288 46.8806 27.3314 46.0713 29.0805L47.8864 29.9203L49.7016 30.7601C50.4167 29.2144 51.5211 27.2667 53.0203 25.7321C54.5059 24.2113 56.2487 23.2197 58.3177 23.2197V21.2197ZM47.8864 29.9203L46.075 29.0725C46.0594 29.1058 46.0397 29.1384 46.0159 29.1696L47.6033 30.3861L49.1908 31.6027C49.3892 31.3437 49.5594 31.064 49.6979 30.768L47.8864 29.9203ZM47.6033 30.3861L45.7276 29.6922L42.2105 39.1995L44.0863 39.8934L45.9621 40.5873L49.4791 31.08L47.6033 30.3861ZM44.0863 39.8934L42.1634 39.3434L40.8982 43.7667L42.8211 44.3167L44.7439 44.8668L46.0092 40.4434L44.0863 39.8934ZM42.8211 44.3167L40.8987 43.7649C40.6349 44.6839 40.7037 45.6633 41.091 46.536L42.9191 45.7248L44.7472 44.9136C44.7431 44.9046 44.7415 44.8968 44.741 44.8901C44.7406 44.8834 44.7412 44.8764 44.7434 44.8686L42.8211 44.3167ZM42.9191 45.7248L41.0921 46.5386L42.573 49.863L44.3999 49.0492L46.2268 48.2354L44.746 44.911L42.9191 45.7248ZM44.3999 49.0492L44.6241 51.0366L52.2831 50.1727L52.059 48.1853L51.8348 46.1979L44.1757 47.0618L44.3999 49.0492ZM52.059 48.1853L50.0731 48.4228L50.5762 52.6281L52.562 52.3905L54.5479 52.153L54.0448 47.9477L52.059 48.1853ZM52.562 52.3905L52.3372 50.4032L45.1311 51.2184L45.3559 53.2057L45.5807 55.1931L52.7868 54.3778L52.562 52.3905ZM45.3559 53.2057L43.3608 53.3457L43.829 60.0178L45.8241 59.8778L47.8192 59.7378L47.351 53.0657L45.3559 53.2057ZM45.8241 59.8778L45.6919 57.8822L41.3473 58.1701L41.4796 60.1658L41.6119 62.1614L45.9564 61.8734L45.8241 59.8778ZM41.4796 60.1658L43.4747 60.0259L42.891 51.7022L40.8959 51.8421L38.9008 51.982L39.4845 60.3056L41.4796 60.1658ZM40.8959 51.8421L42.7234 51.0293L40.7503 46.5933L38.9229 47.4061L37.0955 48.2188L39.0685 52.6549L40.8959 51.8421ZM38.9229 47.4061L40.7501 46.5927C40.3467 45.6867 40.2762 44.6776 40.5474 43.73L38.6246 43.1797L36.7018 42.6293C36.1713 44.4827 36.3113 46.4573 37.0958 48.2194L38.9229 47.4061ZM38.6246 43.1797L40.5495 43.7224L40.5865 43.5912L38.6616 43.0484L36.7367 42.5056L36.6996 42.6369L38.6246 43.1797ZM38.6616 43.0484L37.8564 41.2176L33.427 43.1657L34.2321 44.9964L35.0373 46.8272L39.4668 44.8792L38.6616 43.0484ZM34.2321 44.9964L32.3797 44.2425L29.4833 51.3592L31.3357 52.1131L33.1882 52.8671L36.0846 45.7503L34.2321 44.9964ZM31.3357 52.1131L32.0539 50.2465L28.0033 48.6881L27.2852 50.5547L26.567 52.4213L30.6176 53.9797L31.3357 52.1131ZM27.2852 50.5547L29.1375 51.309L31.4328 45.6724L29.5805 44.9181L27.7282 44.1638L25.4329 49.8004L27.2852 50.5547ZM29.5805 44.9181L30.0269 42.9685L23.0364 41.3678L22.59 43.3173L22.1436 45.2668L29.1341 46.8676L29.5805 44.9181ZM22.59 43.3173L24.5339 43.7876L25.5313 39.6649L23.5874 39.1947L21.6435 38.7244L20.6461 42.847L22.59 43.3173ZM23.5874 39.1947L23.1407 41.1441L31.8647 43.143L32.3114 41.1935L32.758 39.244L24.0341 37.2452L23.5874 39.1947ZM32.3114 41.1935L33.1173 43.024L41.0768 39.5196L40.2709 37.6892L39.465 35.8587L31.5055 39.3631L32.3114 41.1935ZM40.2709 37.6892L42.1467 38.383L44.8253 31.1414L42.9495 30.4475L41.0737 29.7537L38.3951 36.9953L40.2709 37.6892ZM42.9495 30.4475L43.7808 28.6285C40.2718 27.0248 34.8318 24.8381 29.3286 23.8264C23.9444 22.8365 17.8563 22.8529 13.6775 26.4759L14.9876 27.9871L16.2977 29.4982C19.0135 27.1437 23.4569 26.8139 28.6053 27.7604C33.6346 28.6851 38.7283 30.7174 42.1182 32.2666L42.9495 30.4475Z" fill="black" mask="url(#path-2-inside-1_185_501)"/>
</svg>
