<svg width="79" height="71" viewBox="0 0 79 71" fill="none" xmlns="http://www.w3.org/2000/svg">
<path d="M48.2505 38.1123L47.5005 37.9189C44.8859 37.2426 42.5123 35.8492 40.647 33.8965L40.2407 33.4492L39.5005 32.6318L38.7593 33.4492L38.3521 33.8965C36.4878 35.8483 34.1164 37.242 31.5034 37.9189L30.7544 38.1123L30.7534 38.8867L30.7505 54.9521C30.7505 62.9113 24.4047 69.3697 16.5718 69.374L15.5698 69.3369C7.77235 68.8118 1.69913 62.1837 1.75732 54.2041V54.2031C1.80336 46.8947 2.68815 40.4583 4.39502 34.8818H4.396C8.28234 22.1695 12.3169 15.422 18.8081 10.7158L19.4829 10.2959C20.5222 9.72809 21.6801 9.41493 22.8618 9.37891L23.1001 9.375H23.1011C27.3291 9.37503 30.7505 12.8475 30.7505 17.1211L30.7534 30.5869L30.7544 32.3193L32.2544 31.4521C33.5837 30.6837 34.6874 29.579 35.4546 28.249C36.2217 26.919 36.6258 25.4104 36.6255 23.875V4.5C36.6255 3.7375 36.9281 3.00596 37.4673 2.4668C38.0064 1.92778 38.7381 1.625 39.5005 1.625C40.2627 1.62513 40.9937 1.9279 41.5327 2.4668C42.0719 3.00597 42.3755 3.7375 42.3755 4.5V23.875C42.3755 25.4109 42.7794 26.9199 43.5474 28.25C44.3153 29.5801 45.4204 30.6842 46.7505 31.4521L48.2505 32.3184V17.1211C48.2505 12.8478 51.6706 9.37503 55.9028 9.375C57.1538 9.375 58.3988 9.68625 59.7417 10.4268L60.3813 10.8428C66.6781 15.4204 70.7154 22.1657 74.6118 34.8779C76.3188 40.4598 77.2045 46.8961 77.2505 54.1992V54.2002C77.3087 62.1859 71.2253 68.8231 63.2925 69.3457L62.436 69.374C54.5973 69.3718 48.2505 62.9125 48.2505 54.9521V38.1123Z" stroke="black" stroke-width="2"/>
</svg>
