<svg width="74" height="65" viewBox="0 0 74 65" fill="none" xmlns="http://www.w3.org/2000/svg">
<mask id="path-1-inside-1_185_520" fill="white">
<path fill-rule="evenodd" clip-rule="evenodd" d="M39.9287 1.16371C40.0387 1.40026 40.0995 1.65551 40.1076 1.91485C40.1157 2.17418 40.071 2.43253 39.9761 2.67511C39.8811 2.9177 39.7377 3.13975 39.5542 3.32859C39.3706 3.51744 39.1505 3.66935 38.9063 3.77566C37.1222 4.55394 35.6071 5.81388 34.5423 7.40481C33.4774 8.99574 32.9079 10.8503 32.9018 12.7467V12.8158C32.915 15.336 33.9221 17.7559 35.7168 19.5794C37.5114 21.403 39.9577 22.4922 42.5542 22.6237C45.1507 22.7552 47.7007 21.9191 49.6817 20.2868C51.6627 18.6545 52.9245 16.3495 53.2086 13.8444C53.2661 13.3234 53.5348 12.8459 53.9555 12.5169C54.3763 12.188 54.9146 12.0345 55.4521 12.0903C55.9896 12.146 56.4822 12.4065 56.8216 12.8143C57.161 13.2221 57.3193 13.7439 57.2618 14.2649C56.9489 17.1055 55.7316 19.7814 53.7789 21.9211C56.7835 22.579 59.4874 24.1624 61.4861 26.4343C61.6599 26.6314 61.792 26.8599 61.8748 27.1065C61.9576 27.3532 61.9894 27.6132 61.9685 27.8718C61.9476 28.1304 61.8744 28.3825 61.753 28.6136C61.6316 28.8447 61.4644 29.0505 61.261 29.219C61.0576 29.3875 60.8219 29.5155 60.5675 29.5958C60.313 29.676 60.0447 29.7069 59.778 29.6866C59.5112 29.6664 59.2511 29.5954 59.0127 29.4777C58.7742 29.36 58.562 29.198 58.3881 29.0008C56.7022 27.0784 54.3209 25.8548 51.7333 25.5811C49.1457 25.3075 46.5482 26.0047 44.4743 27.5294C42.4005 29.0542 41.0077 31.2909 40.582 33.78C40.1563 36.2691 40.7301 38.8217 42.1855 40.9135L42.1998 40.9293C42.4227 41.2105 42.5634 41.5446 42.6071 41.8967C43.2854 41.9796 43.9331 42.2975 44.4158 42.8365C44.8802 43.3577 45.3025 43.8887 45.6827 44.4297C46.422 45.476 46.3242 46.8343 45.538 47.7682C46.1477 47.7553 46.7458 47.9309 47.2457 48.2695C47.7455 48.6082 48.1212 49.0922 48.3183 49.6516C48.746 50.8618 49.0759 52.0444 49.357 53.1184C49.4898 53.6194 49.4758 54.1464 49.3168 54.6402C49.1578 55.134 48.86 55.5751 48.4568 55.914C49.4202 56.0482 50.2899 56.6504 50.6993 57.5802C51.0761 58.4351 51.4366 58.8517 51.7706 59.0807C52.3083 59.4479 52.6749 59.9612 52.8562 60.5259C53.3104 59.9454 53.9989 59.5387 54.8054 59.444C55.2399 59.3939 55.7281 59.3123 56.2699 59.1991C57.0968 59.0234 57.9176 59.213 58.5551 59.6552C58.7779 59.3474 59.0867 59.1077 59.4452 58.9642L60.0033 58.7372C60.515 58.5025 60.9724 58.1699 61.348 57.7593C61.7236 57.3488 62.0096 56.8688 62.1888 56.3483C62.5941 55.1638 62.5595 53.4461 61.3904 51.2488C61.2618 51.0179 61.182 50.7645 61.1556 50.5034C61.1292 50.2423 61.1568 49.9787 61.2367 49.7281C61.3166 49.4774 61.4472 49.2447 61.621 49.0436C61.7948 48.8424 62.0081 48.6769 62.2486 48.5565C62.4892 48.4362 62.752 48.3636 63.0218 48.3429C63.2917 48.3222 63.563 48.3538 63.8201 48.4359C64.0772 48.518 64.3148 48.6489 64.519 48.8211C64.7233 48.9932 64.8901 49.2031 65.0097 49.4384C65.8407 50.9981 66.3153 52.5301 66.4558 53.9831C67.9724 52.209 69.1936 50.2159 70.0752 48.0761C70.1762 47.8359 70.325 47.6174 70.5131 47.4329C70.7012 47.2484 70.925 47.1017 71.1716 47.001C71.4182 46.9004 71.6829 46.8478 71.9505 46.8463C72.2181 46.8448 72.4834 46.8944 72.7312 46.9923C72.979 47.0901 73.2045 47.2344 73.3948 47.4167C73.5851 47.5991 73.7365 47.816 73.8403 48.055C73.9442 48.2941 73.9984 48.5506 74 48.81C74.0015 49.0694 73.9503 49.3265 73.8494 49.5667C72.5743 52.5972 70.9897 54.917 69.4642 56.6484C70.4561 56.7609 71.501 56.9978 72.6293 57.3789C73.1398 57.5504 73.5591 57.9114 73.795 58.3825C74.0308 58.8537 74.064 59.3963 73.8871 59.8911C73.7101 60.3859 73.3377 60.7924 72.8516 61.021C72.3656 61.2496 71.8057 61.2817 71.2952 61.1102C69.2686 60.4271 67.8286 60.3995 66.4253 60.6838C65.1177 60.9464 63.8325 61.4656 62.0381 62.1941L61.6572 62.3481C61.4224 62.4552 61.1824 62.5514 60.9382 62.6363C60.5249 62.7865 60.0724 62.8024 59.6489 62.6817C59.5074 63.1679 59.2321 63.6075 58.8525 63.9536C58.4728 64.2996 58.0032 64.539 57.494 64.6461C56.7974 64.7935 56.1293 64.9048 55.4898 64.9798C54.8226 65.0581 54.1483 64.9072 53.5841 64.5534C53.0199 64.1995 52.6016 63.665 52.402 63.043C51.9519 63.6201 51.2877 64.0046 50.5501 64.1152C49.8126 64.2257 49.0596 64.0536 48.4507 63.6353C46.9292 62.5929 46.0208 61.1576 45.4097 59.7717C45.1692 59.229 45.113 58.6263 45.2492 58.0507C45.3854 57.475 45.707 56.9563 46.1674 56.5694C45.6033 56.4925 45.0755 56.2548 44.6511 55.8863C44.2268 55.5179 43.9251 55.0355 43.7844 54.5004C43.5243 53.4756 43.2219 52.4613 42.878 51.46C42.719 51.0116 42.6808 50.5312 42.7671 50.0644C42.8533 49.5976 43.0612 49.1599 43.3709 48.7928C42.893 48.8028 42.4201 48.6969 41.9951 48.4849C41.5701 48.2729 41.2064 47.9614 40.937 47.5786C40.6692 47.1986 40.3788 46.8341 40.0672 46.4869C39.744 46.1259 39.5222 45.6903 39.423 45.2222C39.3238 44.754 39.3507 44.2689 39.501 43.8137C39.2681 43.672 39.0671 43.4859 38.9104 43.2668L38.89 43.2333C37.9382 42.0511 36.7206 41.0951 35.3298 40.4382C33.9391 39.7813 32.4121 39.4408 30.865 39.4427C27.6062 39.4427 24.7058 40.9234 22.8401 43.2333C22.7019 43.4277 22.5586 43.6186 22.4103 43.8058C21.2813 45.4343 20.6786 47.352 20.6791 49.314C20.6791 51.1955 21.2209 52.9467 22.1598 54.4412C22.4299 54.888 22.5081 55.4197 22.3776 55.9219C22.247 56.424 21.9181 56.8563 21.4618 57.1256C21.0055 57.3949 20.4583 57.4797 19.9381 57.3616C19.418 57.2436 18.9665 56.9321 18.681 56.4944C17.1035 53.9873 16.3948 51.0569 16.6585 48.1314C13.9878 49.2253 11.0374 49.5076 8.19765 48.9409C7.66854 48.8354 7.20433 48.5304 6.90716 48.0932C6.60999 47.6559 6.50419 47.1221 6.61304 46.6093C6.72188 46.0964 7.03646 45.6464 7.48757 45.3584C7.93868 45.0703 8.48936 44.9678 9.01848 45.0733C9.68654 45.2075 10.3763 45.2753 11.0879 45.2766C14.3467 45.2766 17.2471 43.7959 19.1128 41.4861C19.2513 41.2899 19.3945 41.0991 19.5426 40.9135C20.9795 38.8432 21.5542 36.3223 21.1512 33.8579C20.7481 31.3934 19.3972 29.1684 17.3702 27.6304C15.3431 26.0924 12.7904 25.3555 10.2255 25.568C7.66066 25.7805 5.27398 26.9266 3.54564 28.7757C3.18236 29.1635 2.67506 29.3955 2.13533 29.4206C1.59561 29.4458 1.06767 29.2621 0.667657 28.91C0.267647 28.5579 0.0283316 28.0661 0.00235753 27.543C-0.0236165 27.0198 0.165878 26.5081 0.529155 26.1204C2.49899 24.0147 5.09074 22.549 7.9512 21.9231C6.06333 19.8495 4.86071 17.2747 4.49885 14.5314C4.4389 14.0158 4.59083 13.4979 4.92177 13.09C5.25271 12.6821 5.73604 12.4169 6.26719 12.3517C6.79833 12.2866 7.33458 12.4268 7.7599 12.742C8.18522 13.0572 8.46541 13.522 8.53983 14.0359C8.8735 16.518 10.1673 18.7847 12.1596 20.3773C14.1518 21.9699 16.6938 22.7696 19.2712 22.6145C21.8486 22.4595 24.2691 21.3614 26.043 19.5423C27.8168 17.7232 28.8117 15.3189 28.8262 12.8158V12.7467C28.8201 10.8815 28.269 9.05604 27.2366 7.48194C26.2042 5.90784 24.7328 4.64949 22.9929 3.85265C22.7511 3.74169 22.5342 3.58565 22.3546 3.39344C22.175 3.20123 22.0363 2.97662 21.9462 2.73242C21.8562 2.48823 21.8167 2.22924 21.8299 1.97025C21.8431 1.71125 21.9089 1.45731 22.0234 1.22294C22.1378 0.988562 22.2988 0.778339 22.4971 0.60427C22.6954 0.430201 22.9271 0.295694 23.1791 0.20843C23.431 0.121166 23.6982 0.0828544 23.9654 0.0956814C24.2326 0.108508 24.4946 0.172223 24.7364 0.283188C27.28 1.45222 29.4118 3.32212 30.865 5.6591C32.3648 3.24691 34.5862 1.33405 37.2341 0.174604C37.478 0.0679577 37.7412 0.00894568 38.0087 0.000940562C38.2761 -0.00706455 38.5426 0.0360933 38.7928 0.127949C39.0431 0.219804 39.2722 0.358557 39.4671 0.536277C39.662 0.713998 39.8189 0.927203 39.9287 1.16371ZM30.865 32.5288C31.2728 32.539 31.6785 32.47 32.0582 32.3258C32.438 32.1816 32.7841 31.9652 33.0762 31.6893C33.3683 31.4134 33.6004 31.0836 33.7589 30.7193C33.9174 30.3551 33.9991 29.9637 33.9991 29.5684C33.9991 29.1731 33.9174 28.7818 33.7589 28.4175C33.6004 28.0533 33.3683 27.7234 33.0762 27.4475C32.7841 27.1716 32.438 26.9552 32.0582 26.811C31.6785 26.6668 31.2728 26.5978 30.865 26.608C30.0548 26.608 29.2777 26.92 28.7047 27.4754C28.1317 28.0308 27.8099 28.784 27.8099 29.5694C27.8099 30.3548 28.1317 31.1081 28.7047 31.6634C29.2777 32.2188 30.0548 32.5288 30.865 32.5288Z"/>
</mask>
<path fill-rule="evenodd" clip-rule="evenodd" d="M39.9287 1.16371C40.0387 1.40026 40.0995 1.65551 40.1076 1.91485C40.1157 2.17418 40.071 2.43253 39.9761 2.67511C39.8811 2.9177 39.7377 3.13975 39.5542 3.32859C39.3706 3.51744 39.1505 3.66935 38.9063 3.77566C37.1222 4.55394 35.6071 5.81388 34.5423 7.40481C33.4774 8.99574 32.9079 10.8503 32.9018 12.7467V12.8158C32.915 15.336 33.9221 17.7559 35.7168 19.5794C37.5114 21.403 39.9577 22.4922 42.5542 22.6237C45.1507 22.7552 47.7007 21.9191 49.6817 20.2868C51.6627 18.6545 52.9245 16.3495 53.2086 13.8444C53.2661 13.3234 53.5348 12.8459 53.9555 12.5169C54.3763 12.188 54.9146 12.0345 55.4521 12.0903C55.9896 12.146 56.4822 12.4065 56.8216 12.8143C57.161 13.2221 57.3193 13.7439 57.2618 14.2649C56.9489 17.1055 55.7316 19.7814 53.7789 21.9211C56.7835 22.579 59.4874 24.1624 61.4861 26.4343C61.6599 26.6314 61.792 26.8599 61.8748 27.1065C61.9576 27.3532 61.9894 27.6132 61.9685 27.8718C61.9476 28.1304 61.8744 28.3825 61.753 28.6136C61.6316 28.8447 61.4644 29.0505 61.261 29.219C61.0576 29.3875 60.8219 29.5155 60.5675 29.5958C60.313 29.676 60.0447 29.7069 59.778 29.6866C59.5112 29.6664 59.2511 29.5954 59.0127 29.4777C58.7742 29.36 58.562 29.198 58.3881 29.0008C56.7022 27.0784 54.3209 25.8548 51.7333 25.5811C49.1457 25.3075 46.5482 26.0047 44.4743 27.5294C42.4005 29.0542 41.0077 31.2909 40.582 33.78C40.1563 36.2691 40.7301 38.8217 42.1855 40.9135L42.1998 40.9293C42.4227 41.2105 42.5634 41.5446 42.6071 41.8967C43.2854 41.9796 43.9331 42.2975 44.4158 42.8365C44.8802 43.3577 45.3025 43.8887 45.6827 44.4297C46.422 45.476 46.3242 46.8343 45.538 47.7682C46.1477 47.7553 46.7458 47.9309 47.2457 48.2695C47.7455 48.6082 48.1212 49.0922 48.3183 49.6516C48.746 50.8618 49.0759 52.0444 49.357 53.1184C49.4898 53.6194 49.4758 54.1464 49.3168 54.6402C49.1578 55.134 48.86 55.5751 48.4568 55.914C49.4202 56.0482 50.2899 56.6504 50.6993 57.5802C51.0761 58.4351 51.4366 58.8517 51.7706 59.0807C52.3083 59.4479 52.6749 59.9612 52.8562 60.5259C53.3104 59.9454 53.9989 59.5387 54.8054 59.444C55.2399 59.3939 55.7281 59.3123 56.2699 59.1991C57.0968 59.0234 57.9176 59.213 58.5551 59.6552C58.7779 59.3474 59.0867 59.1077 59.4452 58.9642L60.0033 58.7372C60.515 58.5025 60.9724 58.1699 61.348 57.7593C61.7236 57.3488 62.0096 56.8688 62.1888 56.3483C62.5941 55.1638 62.5595 53.4461 61.3904 51.2488C61.2618 51.0179 61.182 50.7645 61.1556 50.5034C61.1292 50.2423 61.1568 49.9787 61.2367 49.7281C61.3166 49.4774 61.4472 49.2447 61.621 49.0436C61.7948 48.8424 62.0081 48.6769 62.2486 48.5565C62.4892 48.4362 62.752 48.3636 63.0218 48.3429C63.2917 48.3222 63.563 48.3538 63.8201 48.4359C64.0772 48.518 64.3148 48.6489 64.519 48.8211C64.7233 48.9932 64.8901 49.2031 65.0097 49.4384C65.8407 50.9981 66.3153 52.5301 66.4558 53.9831C67.9724 52.209 69.1936 50.2159 70.0752 48.0761C70.1762 47.8359 70.325 47.6174 70.5131 47.4329C70.7012 47.2484 70.925 47.1017 71.1716 47.001C71.4182 46.9004 71.6829 46.8478 71.9505 46.8463C72.2181 46.8448 72.4834 46.8944 72.7312 46.9923C72.979 47.0901 73.2045 47.2344 73.3948 47.4167C73.5851 47.5991 73.7365 47.816 73.8403 48.055C73.9442 48.2941 73.9984 48.5506 74 48.81C74.0015 49.0694 73.9503 49.3265 73.8494 49.5667C72.5743 52.5972 70.9897 54.917 69.4642 56.6484C70.4561 56.7609 71.501 56.9978 72.6293 57.3789C73.1398 57.5504 73.5591 57.9114 73.795 58.3825C74.0308 58.8537 74.064 59.3963 73.8871 59.8911C73.7101 60.3859 73.3377 60.7924 72.8516 61.021C72.3656 61.2496 71.8057 61.2817 71.2952 61.1102C69.2686 60.4271 67.8286 60.3995 66.4253 60.6838C65.1177 60.9464 63.8325 61.4656 62.0381 62.1941L61.6572 62.3481C61.4224 62.4552 61.1824 62.5514 60.9382 62.6363C60.5249 62.7865 60.0724 62.8024 59.6489 62.6817C59.5074 63.1679 59.2321 63.6075 58.8525 63.9536C58.4728 64.2996 58.0032 64.539 57.494 64.6461C56.7974 64.7935 56.1293 64.9048 55.4898 64.9798C54.8226 65.0581 54.1483 64.9072 53.5841 64.5534C53.0199 64.1995 52.6016 63.665 52.402 63.043C51.9519 63.6201 51.2877 64.0046 50.5501 64.1152C49.8126 64.2257 49.0596 64.0536 48.4507 63.6353C46.9292 62.5929 46.0208 61.1576 45.4097 59.7717C45.1692 59.229 45.113 58.6263 45.2492 58.0507C45.3854 57.475 45.707 56.9563 46.1674 56.5694C45.6033 56.4925 45.0755 56.2548 44.6511 55.8863C44.2268 55.5179 43.9251 55.0355 43.7844 54.5004C43.5243 53.4756 43.2219 52.4613 42.878 51.46C42.719 51.0116 42.6808 50.5312 42.7671 50.0644C42.8533 49.5976 43.0612 49.1599 43.3709 48.7928C42.893 48.8028 42.4201 48.6969 41.9951 48.4849C41.5701 48.2729 41.2064 47.9614 40.937 47.5786C40.6692 47.1986 40.3788 46.8341 40.0672 46.4869C39.744 46.1259 39.5222 45.6903 39.423 45.2222C39.3238 44.754 39.3507 44.2689 39.501 43.8137C39.2681 43.672 39.0671 43.4859 38.9104 43.2668L38.89 43.2333C37.9382 42.0511 36.7206 41.0951 35.3298 40.4382C33.9391 39.7813 32.4121 39.4408 30.865 39.4427C27.6062 39.4427 24.7058 40.9234 22.8401 43.2333C22.7019 43.4277 22.5586 43.6186 22.4103 43.8058C21.2813 45.4343 20.6786 47.352 20.6791 49.314C20.6791 51.1955 21.2209 52.9467 22.1598 54.4412C22.4299 54.888 22.5081 55.4197 22.3776 55.9219C22.247 56.424 21.9181 56.8563 21.4618 57.1256C21.0055 57.3949 20.4583 57.4797 19.9381 57.3616C19.418 57.2436 18.9665 56.9321 18.681 56.4944C17.1035 53.9873 16.3948 51.0569 16.6585 48.1314C13.9878 49.2253 11.0374 49.5076 8.19765 48.9409C7.66854 48.8354 7.20433 48.5304 6.90716 48.0932C6.60999 47.6559 6.50419 47.1221 6.61304 46.6093C6.72188 46.0964 7.03646 45.6464 7.48757 45.3584C7.93868 45.0703 8.48936 44.9678 9.01848 45.0733C9.68654 45.2075 10.3763 45.2753 11.0879 45.2766C14.3467 45.2766 17.2471 43.7959 19.1128 41.4861C19.2513 41.2899 19.3945 41.0991 19.5426 40.9135C20.9795 38.8432 21.5542 36.3223 21.1512 33.8579C20.7481 31.3934 19.3972 29.1684 17.3702 27.6304C15.3431 26.0924 12.7904 25.3555 10.2255 25.568C7.66066 25.7805 5.27398 26.9266 3.54564 28.7757C3.18236 29.1635 2.67506 29.3955 2.13533 29.4206C1.59561 29.4458 1.06767 29.2621 0.667657 28.91C0.267647 28.5579 0.0283316 28.0661 0.00235753 27.543C-0.0236165 27.0198 0.165878 26.5081 0.529155 26.1204C2.49899 24.0147 5.09074 22.549 7.9512 21.9231C6.06333 19.8495 4.86071 17.2747 4.49885 14.5314C4.4389 14.0158 4.59083 13.4979 4.92177 13.09C5.25271 12.6821 5.73604 12.4169 6.26719 12.3517C6.79833 12.2866 7.33458 12.4268 7.7599 12.742C8.18522 13.0572 8.46541 13.522 8.53983 14.0359C8.8735 16.518 10.1673 18.7847 12.1596 20.3773C14.1518 21.9699 16.6938 22.7696 19.2712 22.6145C21.8486 22.4595 24.2691 21.3614 26.043 19.5423C27.8168 17.7232 28.8117 15.3189 28.8262 12.8158V12.7467C28.8201 10.8815 28.269 9.05604 27.2366 7.48194C26.2042 5.90784 24.7328 4.64949 22.9929 3.85265C22.7511 3.74169 22.5342 3.58565 22.3546 3.39344C22.175 3.20123 22.0363 2.97662 21.9462 2.73242C21.8562 2.48823 21.8167 2.22924 21.8299 1.97025C21.8431 1.71125 21.9089 1.45731 22.0234 1.22294C22.1378 0.988562 22.2988 0.778339 22.4971 0.60427C22.6954 0.430201 22.9271 0.295694 23.1791 0.20843C23.431 0.121166 23.6982 0.0828544 23.9654 0.0956814C24.2326 0.108508 24.4946 0.172223 24.7364 0.283188C27.28 1.45222 29.4118 3.32212 30.865 5.6591C32.3648 3.24691 34.5862 1.33405 37.2341 0.174604C37.478 0.0679577 37.7412 0.00894568 38.0087 0.000940562C38.2761 -0.00706455 38.5426 0.0360933 38.7928 0.127949C39.0431 0.219804 39.2722 0.358557 39.4671 0.536277C39.662 0.713998 39.8189 0.927203 39.9287 1.16371ZM30.865 32.5288C31.2728 32.539 31.6785 32.47 32.0582 32.3258C32.438 32.1816 32.7841 31.9652 33.0762 31.6893C33.3683 31.4134 33.6004 31.0836 33.7589 30.7193C33.9174 30.3551 33.9991 29.9637 33.9991 29.5684C33.9991 29.1731 33.9174 28.7818 33.7589 28.4175C33.6004 28.0533 33.3683 27.7234 33.0762 27.4475C32.7841 27.1716 32.438 26.9552 32.0582 26.811C31.6785 26.6668 31.2728 26.5978 30.865 26.608C30.0548 26.608 29.2777 26.92 28.7047 27.4754C28.1317 28.0308 27.8099 28.784 27.8099 29.5694C27.8099 30.3548 28.1317 31.1081 28.7047 31.6634C29.2777 32.2188 30.0548 32.5288 30.865 32.5288Z" stroke="black" stroke-width="3" mask="url(#path-1-inside-1_185_520)"/>
</svg>
