<svg width="69" height="70" viewBox="0 0 69 70" fill="none" xmlns="http://www.w3.org/2000/svg">
<path d="M12.725 68.331L7.24775 54.962C3.12607 44.8934 1.00365 34.1119 1 23.2246V19.6896C1.0004 16.169 1.99015 12.7201 3.85529 9.73995C5.72043 6.75983 8.38514 4.36966 11.5426 2.84465C14.7 1.31963 18.2219 0.721779 21.7026 1.11992C25.1833 1.51806 28.4813 2.89601 31.217 5.09511L32.6407 6.23978C33.1689 6.66316 33.8244 6.89373 34.5 6.89373C35.1756 6.89373 35.8311 6.66316 36.3593 6.23978L37.7796 5.09511C40.5157 2.89638 43.8139 1.51875 47.2946 1.12078C50.7754 0.722809 54.2972 1.32068 57.4548 2.84557C60.6123 4.37047 63.2773 6.7604 65.1428 9.7403C67.0084 12.7202 67.9988 16.1689 68 19.6896V23.2246C68 34.1123 65.8761 44.8957 61.7522 54.962L56.275 68.331H49.3807C47.9743 68.3316 46.6035 67.8874 45.4623 67.0614C44.3211 66.2354 43.4675 65.0695 43.0224 63.7288L39.525 53.1811H29.475L25.9776 63.7288C25.5325 65.0695 24.6789 66.2354 23.5377 67.0614C22.3965 67.8874 21.0257 68.3316 19.6193 68.331H12.725Z" stroke="black" stroke-width="1.5"/>
<path d="M24.4497 17.8311L34.4997 21.1977L44.5497 17.8311" stroke="black" stroke-width="1.5"/>
</svg>
